<?xml version="1.0" standalone="no"?><!DOCTYPE svg PUBLIC "-//W3C//DTD SVG 1.1//EN" "http://www.w3.org/Graphics/SVG/1.1/DTD/svg11.dtd"><svg t="1650718280960" class="icon" viewBox="0 0 1024 1024" version="1.1" xmlns="http://www.w3.org/2000/svg" p-id="1442" data-spm-anchor-id="a313x.7781069.0.i0" xmlns:xlink="http://www.w3.org/1999/xlink" width="1080" height="1080"><defs><style type="text/css">@font-face { font-family: feedback-iconfont; src: url("//at.alicdn.com/t/font_1031158_u69w8yhxdu.woff2?t=1630033759944") format("woff2"), url("//at.alicdn.com/t/font_1031158_u69w8yhxdu.woff?t=1630033759944") format("woff"), url("//at.alicdn.com/t/font_1031158_u69w8yhxdu.ttf?t=1630033759944") format("truetype"); }
</style></defs><path d="M703.051852 198.542222l80.308148 47.407408c34.133333 20.195556 47.122963 67.318519 29.108148 105.434074-6.068148 12.8-15.17037 23.419259-26.358518 30.72l-80.308149 52.622222c-33.28 21.807407-76.136296 9.481481-95.762962-27.685926-6.352593-11.946667-9.671111-25.6-9.671112-39.537778V267.377778c0-43.045926 31.288889-77.937778 69.973334-77.937778 11.377778 0 22.565926 3.128889 32.711111 9.102222zM760.50963 625.493333l53.001481 31.288889c22.565926 13.274074 31.099259 44.468148 19.152593 69.594074-3.982222 8.438519-10.05037 15.454815-17.351111 20.290371L762.311111 781.368889c-21.997037 14.411852-50.251852 6.257778-63.241481-18.299259-4.171852-7.86963-6.352593-16.877037-6.352593-26.074074v-65.991112c0-28.444444 20.66963-51.484444 46.174815-51.484444 7.585185 0 14.980741 2.085926 21.617778 5.973333zM333.274074 354.986667l105.908148 62.577777c45.037037 26.642963 62.293333 88.936296 38.4 139.188149-7.964444 16.877037-20.005926 30.90963-34.797037 40.58074l-105.908148 69.49926c-43.994074 28.823704-100.503704 12.420741-126.388148-36.503704-8.343704-15.834074-12.705185-33.848889-12.705185-52.148148V446.008889c0-56.888889 41.339259-102.968889 92.349629-102.968889 14.980741 0 29.866667 4.171852 43.140741 11.946667z" fill="#D1D9E0" p-id="1443" data-spm-anchor-id="a313x.7781069.0.i1" class=""></path></svg>